<svg width="107.000000" height="75.000000" viewBox="0 0 107 75" fill="none" xmlns="http://www.w3.org/2000/svg" xmlns:xlink="http://www.w3.org/1999/xlink">
	<desc>
			Created with Pixso.
	</desc>
	<defs/>
	<path id="Vector 6" d="M105.72 70.23Q106.45 70.96 106.45 72Q106.45 73.03 105.72 73.76Q104.99 74.5 103.95 74.5Q102.92 74.5 102.19 73.76Q101.45 73.03 101.45 72Q101.45 70.96 102.19 70.23Q102.75 69.66 103.5 69.53Q103.52 62.13 102.15 55Q101.34 50.73 100.03 46.57Q96.26 34.56 88.89 25.46Q87.05 23.18 84.98 21.08Q83.38 19.46 81.67 17.97Q54.71 -5.59 0.07 2.54L-0.08 1.55Q54.84 -6.62 82.15 17.06Q83.99 18.65 85.69 20.38Q87.84 22.56 89.75 24.93Q97.17 34.14 100.98 46.27Q102.31 50.52 103.14 54.86Q104.52 62.07 104.5 69.55Q105.19 69.7 105.72 70.23Z" fill="#000000" fill-opacity="1.000000" fill-rule="evenodd"/>
</svg>
