<svg width="23.000000" height="23.000000" viewBox="0 0 23 23" fill="none" xmlns="http://www.w3.org/2000/svg" xmlns:xlink="http://www.w3.org/1999/xlink">
	<desc>
			Created with Pixso.
	</desc>
	<defs/>
	<path id="Vector" d="M10.87 0C9.44 -0.01 8.03 0.27 6.71 0.82C5.39 1.36 4.19 2.16 3.18 3.17C2.17 4.18 1.37 5.38 0.82 6.7C0.28 8.02 -0.01 9.43 0 10.86L0 11.55L11.45 11.55L11.45 23L12.13 23C13.56 23 14.97 22.71 16.29 22.17C17.61 21.62 18.8 20.82 19.81 19.81C20.82 18.81 21.62 17.61 22.17 16.29C22.71 14.97 23 13.56 23 12.13L23 0L10.87 0Z" fill="#0F6A38" fill-opacity="1.000000" fill-rule="nonzero"/>
</svg>
