<svg width="180.000000" height="40.000000" viewBox="0 0 180 40" fill="none" xmlns="http://www.w3.org/2000/svg" xmlns:xlink="http://www.w3.org/1999/xlink">
	<desc>
			Created with Pixso.
	</desc>
	<defs>
		<clipPath id="clip202_286">
			<rect id="Ресурс 1 1" width="180.000000" height="40.000000" fill="white" fill-opacity="0"/>
		</clipPath>
	</defs>
	<rect id="Ресурс 1 1" width="180.000000" height="40.000000" fill="#FFFFFF" fill-opacity="0"/>
	<g clip-path="url(#clip202_286)">
		<path id="Vector" d="M0 11.26L0 33.73L22.95 33.73L22.95 22.43L11.54 22.43L11.54 11.26L0 11.26Z" fill="#1D1D1B" fill-opacity="1.000000" fill-rule="nonzero"/>
		<path id="Vector" d="M22.38 0C20.95 -0.01 19.54 0.27 18.23 0.8C16.91 1.33 15.72 2.11 14.71 3.1C13.71 4.08 12.91 5.25 12.36 6.54C11.82 7.82 11.54 9.2 11.54 10.59L11.54 11.26L22.95 11.26L22.95 22.43L23.63 22.43C25.05 22.43 26.46 22.15 27.77 21.62C29.09 21.09 30.28 20.31 31.28 19.32C32.29 18.34 33.09 17.17 33.63 15.89C34.18 14.6 34.46 13.22 34.46 11.83L34.46 0L22.38 0Z" fill="#0F6A38" fill-opacity="1.000000" fill-rule="nonzero"/>
		<path id="Vector" d="M45.57 12.4C45.57 9.38 48.3 6.76 52.74 6.76C55.6 6.76 57.88 7.6 59.28 8.91L57.16 11.51C56.24 12.64 54.83 10.95 53.19 10.95C51.79 10.95 50.95 11.51 50.95 12.4C50.95 15.64 60.22 14.41 60.22 21.23C60.22 24.63 56.89 26.98 52.61 26.98C49.63 26.98 46.17 25.86 45.09 23.76C45.09 23.76 46.13 22.68 47.17 21.57C48.2 20.46 49.75 22.78 52.75 22.78C54.08 22.78 54.84 22.2 54.84 21.28C54.84 17.91 45.57 18.71 45.57 12.4" fill="#1D1D1B" fill-opacity="1.000000" fill-rule="nonzero"/>
		<path id="Vector" d="M67.78 11.28L67.78 16.59C68.59 16.67 69.41 16.72 70.23 16.73C71.43 16.73 73.14 15.83 73.14 13.93C73.14 12.2 71.78 11.22 70.15 11.22C69.55 11.22 68.72 11.25 67.78 11.28M63.21 26.62L63.21 8.45C63.21 8.09 63.36 7.75 63.61 7.49C63.87 7.24 64.22 7.09 64.58 7.08L66.14 7.06C66.14 7.06 68.99 7.04 69.68 7.04C76.21 7.04 77.98 10.59 77.98 13.97C77.98 17.46 75.62 20.91 70.36 20.92C69.93 20.92 68.48 20.92 67.76 20.83L67.76 25.26C67.76 25.44 67.73 25.62 67.66 25.79C67.59 25.95 67.48 26.11 67.35 26.23C67.23 26.36 67.07 26.46 66.9 26.53C66.73 26.6 66.55 26.63 66.37 26.63L63.21 26.62Z" fill="#1D1D1B" fill-opacity="1.000000" fill-rule="nonzero"/>
		<path id="Vector" d="M80.86 8.47C80.86 8.29 80.9 8.11 80.97 7.94C81.04 7.77 81.14 7.62 81.27 7.5C81.4 7.37 81.56 7.27 81.73 7.2C81.9 7.13 82.08 7.09 82.26 7.09L94.71 7.09L94.71 9.91C94.71 10.28 94.56 10.62 94.3 10.88C94.04 11.14 93.68 11.28 93.31 11.28L85.43 11.28L85.43 14.71L93.71 14.71L93.71 17.53C93.71 17.71 93.67 17.88 93.6 18.05C93.53 18.22 93.43 18.37 93.3 18.5C93.17 18.62 93.01 18.72 92.84 18.79C92.67 18.86 92.49 18.9 92.31 18.9L85.43 18.9L85.43 22.45L94.99 22.45L94.99 25.26C94.99 25.63 94.85 25.98 94.58 26.23C94.32 26.49 93.96 26.63 93.59 26.63L80.86 26.63L80.86 8.47Z" fill="#1D1D1B" fill-opacity="1.000000" fill-rule="nonzero"/>
		<path id="Vector" d="M148.41 26.63C148.2 26.64 147.99 26.59 147.8 26.5C147.61 26.41 147.44 26.28 147.31 26.11L138.66 14.91L138.66 25.26C138.66 25.44 138.63 25.62 138.56 25.79C138.49 25.96 138.38 26.11 138.25 26.23C138.12 26.36 137.97 26.46 137.8 26.53C137.63 26.6 137.44 26.63 137.26 26.63L134.38 26.63L134.38 7.09L137.35 7.09C137.56 7.09 137.77 7.14 137.96 7.23C138.15 7.32 138.31 7.46 138.44 7.62L147.07 18.89L147.07 8.47C147.07 8.29 147.11 8.11 147.18 7.94C147.25 7.77 147.35 7.62 147.48 7.5C147.61 7.37 147.77 7.27 147.94 7.2C148.11 7.13 148.29 7.09 148.47 7.09L151.35 7.09L151.35 26.63L148.41 26.63Z" fill="#1D1D1B" fill-opacity="1.000000" fill-rule="nonzero"/>
		<path id="Vector" d="M159.82 11.28L159.82 22.45C160.37 22.49 160.92 22.51 161.47 22.5C165.09 22.5 167.28 20.41 167.28 16.7C167.28 13.1 164.89 11.2 161.5 11.2C160.94 11.18 160.38 11.21 159.82 11.28ZM155.25 8.45C155.26 8.09 155.4 7.74 155.66 7.49C155.78 7.36 155.94 7.26 156.11 7.19C156.27 7.12 156.45 7.08 156.64 7.08L158.39 7.05C158.39 7.05 160.98 7.01 161.56 7.01C168.68 7.01 172.11 11.51 172.11 16.7C172.11 22.17 168.47 26.7 161.32 26.7C158.59 26.7 155.24 26.64 155.24 26.64L155.25 8.45Z" fill="#1D1D1B" fill-opacity="1.000000" fill-rule="nonzero"/>
		<path id="Vector" d="M98.81 8.46C98.81 8.1 98.96 7.75 99.22 7.49C99.49 7.24 99.84 7.09 100.21 7.09L103.37 7.09L103.37 22.45L110.94 22.45L109.58 25.78C109.47 26.03 109.29 26.25 109.06 26.4C108.83 26.55 108.56 26.63 108.28 26.63L98.81 26.63L98.81 8.46Z" fill="#1D1D1B" fill-opacity="1.000000" fill-rule="nonzero"/>
		<path id="Vector" d="M119.45 19.2L121.94 12.83L124.42 19.22L119.45 19.2ZM124.11 7.09L120.97 7.09C120.69 7.09 120.42 7.18 120.19 7.33C119.96 7.48 119.78 7.7 119.68 7.95L111.95 26.63L115.59 26.63C115.87 26.64 116.15 26.55 116.38 26.4C116.61 26.25 116.79 26.03 116.89 25.77L117.82 23.39L126.04 23.39L126.96 25.77C127.06 26.03 127.24 26.25 127.48 26.4C127.71 26.56 127.98 26.64 128.26 26.63L132.19 26.63L124.11 7.09Z" fill="#1D1D1B" fill-opacity="1.000000" fill-rule="nonzero"/>
		<path id="Vector" d="M112.86 36.47L112.86 37.79C113.03 37.9 113.24 37.95 113.44 37.95C113.56 37.95 113.68 37.94 113.79 37.89C113.91 37.85 114.01 37.79 114.1 37.7C114.18 37.62 114.25 37.52 114.29 37.41C114.33 37.3 114.35 37.18 114.35 37.06C114.36 36.95 114.35 36.83 114.31 36.72C114.27 36.61 114.21 36.51 114.14 36.43C114.06 36.35 113.96 36.28 113.85 36.24C113.74 36.19 113.63 36.17 113.51 36.17C113.39 36.18 113.27 36.21 113.16 36.26C113.05 36.32 112.95 36.39 112.87 36.49M112.06 33.79L112.86 33.79L112.86 35.71C113.1 35.53 113.4 35.44 113.7 35.44C114.66 35.44 115.21 36.1 115.21 37.02C115.21 38.04 114.51 38.7 113.4 38.7C112.93 38.7 112.46 38.58 112.05 38.36L112.06 33.79Z" fill="#1D1D1B" fill-opacity="1.000000" fill-rule="nonzero"/>
		<path id="Vector" d="M117.61 38.61C117.14 39.73 116.84 40 116.38 40C116.13 39.99 115.89 39.9 115.69 39.75L115.95 39.15C116.05 39.21 116.16 39.25 116.27 39.26C116.48 39.26 116.63 39.1 116.76 38.78L116.83 38.61L115.36 35.5L116.34 35.5L117.08 37.2C117.14 37.35 117.18 37.52 117.23 37.65C117.26 37.5 117.3 37.34 117.34 37.19L117.92 35.5L118.84 35.5L117.61 38.61Z" fill="#1D1D1B" fill-opacity="1.000000" fill-rule="nonzero"/>
		<path id="Vector" d="M120.46 33.77L124.53 33.77L124.53 34.57L122.93 34.57L122.93 38.61L122.06 38.61L122.06 34.57L120.46 34.57L120.46 33.77Z" fill="#1D1D1B" fill-opacity="1.000000" fill-rule="nonzero"/>
		<path id="Vector" d="M125.29 33.77L128.14 33.77L128.14 34.57L126.15 34.57L126.15 35.77L127.93 35.77L127.93 36.57L126.15 36.57L126.15 37.82L128.22 37.82L128.22 38.61L125.29 38.61L125.29 33.77Z" fill="#1D1D1B" fill-opacity="1.000000" fill-rule="nonzero"/>
		<path id="Vector" d="M133.11 38.14C132.67 38.51 132.1 38.71 131.52 38.69C131.18 38.71 130.84 38.66 130.52 38.54C130.2 38.42 129.91 38.24 129.67 38C129.43 37.76 129.24 37.48 129.12 37.16C129 36.85 128.95 36.52 128.97 36.18C128.97 34.79 129.87 33.68 131.5 33.68C132.04 33.66 132.57 33.83 133 34.17L132.61 34.8C132.28 34.58 131.89 34.47 131.5 34.48C130.58 34.48 129.9 35.13 129.9 36.18C129.88 36.41 129.92 36.63 130 36.84C130.08 37.05 130.2 37.25 130.37 37.41C130.53 37.57 130.72 37.69 130.93 37.77C131.15 37.86 131.38 37.89 131.61 37.89C132.03 37.88 132.44 37.75 132.78 37.5L133.11 38.14Z" fill="#1D1D1B" fill-opacity="1.000000" fill-rule="nonzero"/>
		<path id="Vector" d="M137.09 36.55L134.84 36.55L134.84 38.61L133.97 38.61L133.97 33.77L134.84 33.77L134.84 35.75L137.09 35.75L137.09 33.77L137.96 33.77L137.96 38.61L137.09 38.61L137.09 36.55Z" fill="#1D1D1B" fill-opacity="1.000000" fill-rule="nonzero"/>
		<path id="Vector" d="M142.86 38.61L140.14 35.26L140.14 38.61L139.33 38.61L139.33 33.77L140.02 33.77L142.73 37.14L142.73 33.77L143.55 33.77L143.55 38.61L142.86 38.61Z" fill="#1D1D1B" fill-opacity="1.000000" fill-rule="nonzero"/>
		<path id="Vector" d="M147.12 37.89C148.16 37.89 148.78 37.15 148.78 36.19C148.79 35.97 148.76 35.75 148.68 35.54C148.61 35.33 148.49 35.14 148.33 34.98C148.17 34.82 147.99 34.69 147.78 34.6C147.57 34.51 147.35 34.47 147.12 34.47C146.89 34.47 146.67 34.51 146.46 34.6C146.25 34.69 146.07 34.82 145.91 34.98C145.76 35.14 145.64 35.33 145.56 35.54C145.48 35.75 145.45 35.97 145.46 36.19C145.46 36.41 145.49 36.63 145.57 36.83C145.65 37.04 145.77 37.23 145.92 37.38C146.08 37.54 146.26 37.67 146.47 37.76C146.67 37.84 146.89 37.89 147.12 37.89ZM147.12 33.7C147.46 33.68 147.8 33.73 148.12 33.85C148.44 33.97 148.73 34.16 148.97 34.39C149.21 34.63 149.4 34.91 149.53 35.22C149.65 35.53 149.71 35.87 149.69 36.2C149.7 36.53 149.64 36.87 149.52 37.17C149.39 37.48 149.2 37.76 148.96 38C148.72 38.23 148.43 38.42 148.11 38.54C147.8 38.66 147.46 38.72 147.12 38.71C146.78 38.72 146.44 38.66 146.12 38.54C145.81 38.42 145.52 38.24 145.28 38C145.04 37.77 144.85 37.49 144.73 37.18C144.6 36.87 144.55 36.53 144.56 36.2C144.55 35.87 144.61 35.54 144.73 35.23C144.86 34.92 145.05 34.64 145.29 34.41C145.53 34.17 145.81 33.99 146.13 33.87C146.44 33.74 146.78 33.69 147.12 33.7Z" fill="#1D1D1B" fill-opacity="1.000000" fill-rule="nonzero"/>
		<path id="Vector" d="M154.23 38.61L151.51 35.26L151.51 38.61L150.7 38.61L150.7 33.77L151.39 33.77L154.11 37.14L154.11 33.77L154.92 33.77L154.92 38.61L154.23 38.61Z" fill="#1D1D1B" fill-opacity="1.000000" fill-rule="nonzero"/>
		<path id="Vector" d="M157.26 33.77L156.39 33.77L156.39 38.61L157.26 38.61L157.26 33.77Z" fill="#1D1D1B" fill-opacity="1.000000" fill-rule="nonzero"/>
		<path id="Vector" d="M162.5 38.14C162.06 38.51 161.5 38.71 160.92 38.69C160.58 38.71 160.24 38.66 159.92 38.54C159.6 38.42 159.31 38.24 159.06 38C158.82 37.76 158.63 37.48 158.51 37.16C158.39 36.85 158.34 36.52 158.36 36.18C158.36 34.79 159.26 33.68 160.89 33.68C161.44 33.66 161.97 33.83 162.39 34.17L162.01 34.8C161.68 34.58 161.29 34.47 160.89 34.48C159.97 34.48 159.29 35.13 159.29 36.18C159.28 36.41 159.31 36.63 159.39 36.84C159.48 37.05 159.6 37.25 159.76 37.41C159.92 37.57 160.12 37.69 160.33 37.77C160.55 37.86 160.77 37.89 161 37.89C161.43 37.88 161.84 37.75 162.17 37.5L162.5 38.14Z" fill="#1D1D1B" fill-opacity="1.000000" fill-rule="nonzero"/>
		<path id="Vector" d="M165.36 37.89C166.39 37.89 167.02 37.15 167.02 36.19C167.03 35.97 167 35.75 166.92 35.54C166.85 35.33 166.73 35.14 166.57 34.98C166.42 34.82 166.23 34.69 166.02 34.6C165.81 34.51 165.59 34.47 165.36 34.47C165.14 34.47 164.91 34.51 164.7 34.6C164.5 34.69 164.31 34.82 164.15 34.98C164 35.14 163.88 35.33 163.8 35.54C163.72 35.75 163.69 35.97 163.71 36.19C163.7 36.41 163.73 36.63 163.81 36.83C163.89 37.04 164.01 37.23 164.16 37.38C164.32 37.54 164.5 37.67 164.71 37.76C164.91 37.84 165.14 37.89 165.36 37.89ZM165.36 33.7C165.7 33.68 166.04 33.73 166.36 33.85C166.68 33.97 166.97 34.16 167.21 34.39C167.45 34.63 167.64 34.91 167.77 35.22C167.89 35.53 167.95 35.87 167.94 36.2C167.95 36.53 167.88 36.87 167.76 37.17C167.63 37.48 167.44 37.76 167.2 38C166.96 38.23 166.67 38.42 166.35 38.54C166.04 38.66 165.7 38.72 165.36 38.71C165.02 38.72 164.68 38.66 164.36 38.54C164.05 38.42 163.76 38.24 163.52 38C163.28 37.77 163.09 37.49 162.97 37.18C162.84 36.87 162.79 36.53 162.8 36.2C162.79 35.87 162.85 35.54 162.97 35.23C163.1 34.92 163.29 34.64 163.53 34.41C163.77 34.17 164.05 33.99 164.37 33.87C164.68 33.74 165.02 33.69 165.36 33.7Z" fill="#1D1D1B" fill-opacity="1.000000" fill-rule="nonzero"/>
		<path id="Vector" d="M168.94 33.77L169.81 33.77L169.81 37.82L172.03 37.82L172.03 38.61L168.94 38.61L168.94 33.77Z" fill="#1D1D1B" fill-opacity="1.000000" fill-rule="nonzero"/>
		<path id="Vector" d="M176.31 9.15C176.85 9.15 177.14 9.41 177.14 9.81C177.14 9.9 177.11 10 177.07 10.09C177.03 10.17 176.97 10.25 176.9 10.32C176.82 10.38 176.74 10.43 176.64 10.46C176.55 10.49 176.45 10.51 176.35 10.5L175.81 10.5L175.81 9.15L176.31 9.15ZM175.81 12.41L175.81 11.04L176.32 11.04L177.2 12.41L178.09 12.41L177.06 10.89C177.3 10.82 177.52 10.67 177.66 10.48C177.81 10.28 177.89 10.04 177.89 9.79C177.89 9.13 177.49 8.61 176.4 8.61L175.05 8.61L175.05 12.41L175.81 12.41ZM173.72 10.57C173.72 10.04 173.87 9.53 174.17 9.1C174.46 8.67 174.88 8.33 175.38 8.13C175.87 7.93 176.41 7.88 176.93 7.98C177.46 8.08 177.94 8.33 178.31 8.7C178.69 9.07 178.95 9.54 179.05 10.05C179.15 10.56 179.1 11.09 178.9 11.57C178.69 12.06 178.35 12.47 177.9 12.76C177.46 13.05 176.94 13.2 176.41 13.2C175.69 13.2 175.01 12.92 174.51 12.43C174 11.93 173.72 11.26 173.72 10.57ZM172.82 10.55C172.81 11.25 173.02 11.93 173.41 12.51C173.81 13.09 174.37 13.54 175.02 13.81C175.68 14.08 176.4 14.15 177.09 14.02C177.79 13.88 178.43 13.55 178.94 13.06C179.44 12.57 179.79 11.95 179.93 11.27C180.07 10.58 180 9.88 179.73 9.23C179.46 8.59 179 8.04 178.41 7.65C177.83 7.26 177.13 7.05 176.42 7.05C175.95 7.05 175.48 7.14 175.05 7.31C174.61 7.49 174.21 7.74 173.88 8.07C173.54 8.39 173.28 8.78 173.1 9.21C172.91 9.63 172.82 10.09 172.82 10.55Z" fill="#3C3C3B" fill-opacity="1.000000" fill-rule="nonzero"/>
	</g>
</svg>
