<svg width="24.000000" height="17.000000" viewBox="0 0 24 17" fill="none" xmlns="http://www.w3.org/2000/svg" xmlns:xlink="http://www.w3.org/1999/xlink">
	<desc>
			Created with Pixso.
	</desc>
	<defs/>
	<path id="Vector" d="M23.46 2.42L23.49 2.62C23.36 2.12 23.1 1.67 22.73 1.3C22.37 0.93 21.92 0.66 21.43 0.51L21.4 0.5C19.53 0 12.01 0 12.01 0C12.01 0 4.5 -0.02 2.61 0.5C2.11 0.65 1.66 0.91 1.29 1.28C0.93 1.65 0.66 2.1 0.52 2.6L0.52 2.62C-0.18 6.27 -0.19 10.66 0.55 14.57L0.52 14.37C0.65 14.87 0.92 15.32 1.28 15.69C1.64 16.06 2.09 16.33 2.59 16.48L2.61 16.49C4.48 16.99 12.01 16.99 12.01 16.99C12.01 16.99 19.52 16.99 21.41 16.49C21.9 16.34 22.35 16.07 22.72 15.71C23.08 15.34 23.35 14.89 23.49 14.39L23.5 14.37C23.81 12.67 24 10.72 24 8.72L23.99 8.5L24 8.27C24 6.27 23.81 4.32 23.46 2.42ZM9.6 12.15L9.6 4.85L15.87 8.51L9.6 12.15Z" fill="#C4C4C4" fill-opacity="1.000000" fill-rule="nonzero"/>
</svg>
